# xmcd
#
# Track frame offsets:
#	150
#	11040
#	23089
#	39169
#	53476
#	71528
#	90501
#	104785
#	121981
#	143657
#	158280
#	172839
#
# Disc length: 2564 seconds
#
# Revision: 2
# Processed by: cddbd v1.5.2PL0 Copyright (c) Steve Scherf et al.
# Submitted via: audiograbber 1.82.02
#
DISCID=860a020c
DTITLE=Garth Brooks - The Ultimate Collection - Disc 10 (Gunslinger)
DYEAR=2016
DGENRE=Country
TTITLE0=Garth Brooks - Honky-Tonk Somewhere
TTITLE1=Garth Brooks - Weekend
TTITLE2=Garth Brooks - Ask Me How I Know
TTITLE3=Garth Brooks - Baby, Let's Lay Down and Dance
TTITLE4=Garth Brooks - He Really Loves You
TTITLE5=Garth Brooks - Whiskey To Wine
TTITLE6=Garth Brooks - Bang! Bang!
TTITLE7=Garth Brooks - Pure Adrenaline
TTITLE8=Garth Brooks - 8teen
TTITLE9=Garth Brooks - SugarCane (Target Exclusive)
TTITLE10=Garth Brooks - Cowboys and Friends
TTITLE11=Garth Brooks - Friends In Low Places (Target Exclusive)
EXTD=YEAR: 2016
EXTT0=
EXTT1=
EXTT2=
EXTT3=
EXTT4=
EXTT5=
EXTT6=
EXTT7=
EXTT8=
EXTT9=
EXTT10=
EXTT11=
PLAYORDER=
